<svg width="29" height="29" viewBox="0 0 29 29" fill="none" xmlns="http://www.w3.org/2000/svg">
<path opacity="0.4" d="M20.1038 0.75H24.7595C26.6876 0.75 28.25 2.32555 28.25 4.26995V8.96497C28.25 10.9094 26.6876 12.4849 24.7595 12.4849H20.1038C18.1757 12.4849 16.6133 10.9094 16.6133 8.96497V4.26995C16.6133 2.32555 18.1757 0.75 20.1038 0.75Z" fill="#56555C"/>
<path d="M8.89617 16.5151C10.8243 16.5151 12.3866 18.0906 12.3866 20.035V24.7301C12.3866 26.6731 10.8243 28.25 8.89617 28.25H4.24047C2.31235 28.25 0.75 26.6731 0.75 24.7301V20.035C0.75 18.0906 2.31235 16.5151 4.24047 16.5151H8.89617ZM24.7595 16.5151C26.6876 16.5151 28.25 18.0906 28.25 20.035V24.7301C28.25 26.6731 26.6876 28.25 24.7595 28.25H20.1038C18.1757 28.25 16.6134 26.6731 16.6134 24.7301V20.035C16.6134 18.0906 18.1757 16.5151 20.1038 16.5151H24.7595ZM8.89617 0.75C10.8243 0.75 12.3866 2.32555 12.3866 4.26995V8.96497C12.3866 10.9094 10.8243 12.4849 8.89617 12.4849H4.24047C2.31235 12.4849 0.75 10.9094 0.75 8.96497V4.26995C0.75 2.32555 2.31235 0.75 4.24047 0.75H8.89617Z" fill="#56555C"/>
</svg>
