<svg width="22" height="25" viewBox="0 0 22 25" fill="none" xmlns="http://www.w3.org/2000/svg">
<path opacity="0.4" d="M16.1223 0H5.87889C2.16333 0 0 2.17556 0 5.90333V18.5289C0 22.3178 2.16333 24.4444 5.87889 24.4444H16.1223C19.8978 24.4444 22 22.3178 22 18.5289V5.90333C22 2.17556 19.8978 0 16.1223 0Z" fill="#FDA371"/>
<path d="M6.2089 16.7933H15.7911C16.2788 16.8422 16.6467 17.2578 16.6467 17.7589C16.6467 18.2466 16.2788 18.6633 15.7911 18.7122H6.2089C5.84224 18.7611 5.48779 18.5778 5.29224 18.2722C5.09668 17.9545 5.09668 17.5511 5.29224 17.2456C5.48779 16.9278 5.84224 16.7567 6.2089 16.7933ZM15.7911 11.2188C16.3167 11.2188 16.7445 11.6478 16.7445 12.1733C16.7445 12.6989 16.3167 13.1267 15.7911 13.1267H6.2089C5.68212 13.1267 5.25557 12.6989 5.25557 12.1733C5.25557 11.6478 5.68212 11.2188 6.2089 11.2188H15.7911ZM9.86212 5.68335C10.3889 5.68335 10.8167 6.11113 10.8167 6.63546C10.8167 7.17446 10.3889 7.60224 9.86212 7.60224H6.2089C5.68212 7.60224 5.25557 7.17446 5.25557 6.64891C5.25557 6.12335 5.68212 5.69557 6.2089 5.69557V5.68335H9.86212Z" fill="#FD71AF"/>
</svg>
