<svg width="30" height="30" viewBox="0 0 30 30" fill="none" xmlns="http://www.w3.org/2000/svg">
<path opacity="0.4" d="M20.8304 27.4871H9.16859C7.36044 27.5995 5.58476 26.9727 4.24862 25.7514C3.02737 24.414 2.40051 22.6384 2.5129 20.8315V9.16853C2.40051 7.36164 3.02612 5.58598 4.24738 4.24861C5.58476 3.02737 7.36044 2.40052 9.16859 2.5129H20.8304C22.6361 2.40052 24.4105 3.02612 25.7466 4.24736C26.9666 5.58598 27.5948 7.3604 27.4874 9.16853V20.8315C27.5985 22.6384 26.9729 24.414 25.7516 25.7514C24.4143 26.9727 22.6386 27.5995 20.8304 27.4871Z" fill="#FDA371"/>
<path d="M21.3182 12.997L13.1272 21.2287C12.7012 21.6433 12.1414 21.875 11.5572 21.875H8.69703C8.53881 21.875 8.39276 21.814 8.28322 21.7043C8.17368 21.5945 8.125 21.4482 8.125 21.2896L8.19803 18.3994C8.2102 17.8262 8.44144 17.2896 8.84308 16.8872L14.6486 11.0701C14.7459 10.9726 14.9163 10.9726 15.0137 11.0701L17.0499 13.0982C17.1838 13.2311 17.3785 13.3177 17.5854 13.3177C18.0357 13.3177 18.3887 12.9518 18.3887 12.5128C18.3887 12.2933 18.3035 12.0982 18.1696 11.9518C18.1331 11.903 16.1943 9.97256 16.1943 9.97256C16.0726 9.85061 16.0726 9.64329 16.1943 9.52134L17.0097 8.69207C17.7643 7.93598 18.9814 7.93598 19.736 8.69207L21.3182 10.2774C22.0606 11.0213 22.0606 12.2409 21.3182 12.997Z" fill="#56555C"/>
</svg>
