<svg width="17" height="16" viewBox="0 0 17 16" fill="none" xmlns="http://www.w3.org/2000/svg">
<path d="M13.0347 15.058L8.30828 10.7024L3.99045 15.3879C3.29524 16.1423 2.11473 16.1854 1.35372 15.4841C0.592704 14.7828 0.539366 13.6027 1.23458 12.8483L5.5524 8.16277L0.825935 3.80718C0.183232 3.08015 0.190261 1.99005 0.842212 1.28259C1.49416 0.575123 2.58006 0.479234 3.35707 1.06052L8.06872 5.40245L12.373 0.731656C13.095 0.0956956 14.186 0.112182 14.8996 0.769836C15.6133 1.42749 15.7187 2.51349 15.1437 3.28493L10.8394 7.95573L15.5659 12.3113C16.2086 13.0383 16.2016 14.1284 15.5496 14.8359C14.8977 15.5434 13.8118 15.6393 13.0347 15.058Z" fill="#56555C"/>
</svg>
