<svg width="17" height="17" viewBox="0 0 17 17" fill="none" xmlns="http://www.w3.org/2000/svg">
<path d="M15.574 14.6238C16.0846 14.6238 16.5 15.0446 16.5 15.5619C16.5 16.0802 16.0846 16.5 15.574 16.5H10.3397C9.82903 16.5 9.41368 16.0802 9.41368 15.5619C9.41368 15.0446 9.82903 14.6238 10.3397 14.6238H15.574ZM11.944 0.640808L13.2961 1.71489C13.8506 2.14846 14.2202 2.71999 14.3467 3.32107C14.4926 3.98227 14.3369 4.63165 13.8992 5.19332L5.84503 15.6089C5.47539 16.0819 4.93067 16.348 4.34703 16.3578L1.13703 16.3972C0.961938 16.3972 0.816029 16.279 0.777119 16.1115L0.0475736 12.9484C-0.078881 12.367 0.0475736 11.7659 0.41721 11.3027L6.12712 3.91231C6.2244 3.79406 6.39949 3.77534 6.51621 3.86304L8.91885 5.7747C9.07449 5.9028 9.28849 5.97178 9.51221 5.94222C9.98885 5.88309 10.3099 5.44952 10.2612 4.98639C10.232 4.74989 10.1153 4.55281 9.95967 4.405C9.91103 4.36559 7.62512 2.53276 7.62512 2.53276C7.47921 2.41451 7.45003 2.19773 7.56676 2.0509L8.4714 0.877302C9.30794 -0.196775 10.767 -0.295314 11.944 0.640808Z" fill="#56555C"/>
</svg>
